# xmcd
#
# Track frame offsets:
#	150
#	11227
#	25059
#	44113
#	56332
#	66665
#	79183
#	91707
#	104056
#	115387
#	124053
#	135960
#
# Disc length: 1940 seconds
#
# Revision: 0
# Processed by: cddbd v1.5.2PL0 Copyright (c) Steve Scherf et al.
# Submitted via: EZCDAudioConverter 5.5.1.1
#
DISCID=a607920c
DTITLE=Tom Isaacs, Alex Leach, Larry Gillis - The Bucket List Vol.1 - Reminsci
DTITLE=ng The Old Days 
DYEAR=2013
DGENRE=Bluegrass
TTITLE0=Jealous Lover
TTITLE1=It's Never Too Late
TTITLE2=Hills Of Home
TTITLE3=Thy Burdens Are Greater Than Mine
TTITLE4=The Old Home
TTITLE5=Black Mountain Blues
TTITLE6=Have You Someone (In Heaven A Waiting)
TTITLE7=Too Late To Cry
TTITLE8=The Fields Have Turned Brown
TTITLE9=My Brother's Bride
TTITLE10=Let Me Be Your Friend
TTITLE11=Daybreak In Dixie
EXTD=
EXTT0=
EXTT1=
EXTT2=
EXTT3=
EXTT4=
EXTT5=
EXTT6=
EXTT7=
EXTT8=
EXTT9=
EXTT10=
EXTT11=
PLAYORDER=
